<?xml version="1.0" encoding="utf-8"?>
<!-- Generator: Adobe Illustrator 28.2.0, SVG Export Plug-In . SVG Version: 6.00 Build 0)  -->
<svg version="1.1" id="Capa_1" xmlns="http://www.w3.org/2000/svg" xmlns:xlink="http://www.w3.org/1999/xlink" x="0px" y="0px"
	 viewBox="0 0 912 900" style="enable-background:new 0 0 912 900;" xml:space="preserve">
<style type="text/css">
	.st0{fill:#CACACA;}
	.st1{fill:#323232;}
	.st2{fill:#333333;}
	.st3{fill:#020202;}
	.st4{fill:#92ECF3;}
	.st5{fill:#CBCBCB;}
	.st6{fill:#FDFDFD;}
	.st7{fill:#C5C5C5;}
	.st8{fill:#1A9FBB;}
	.st9{fill:#199EBA;}
	.st10{fill:#94E7EE;}
	.st11{fill:#CCCCCC;}
	.st12{fill:#343434;}
	.st13{fill:#97EBF2;}
	.st14{fill:#94EBF2;}
	.st15{fill:#CDCDCD;}
	.st16{fill:#255761;}
	.st17{fill:#32393A;}
	.st18{fill:#FBFCFC;}
	.st19{fill:#D0D0D0;}
	.st20{fill:#189CB8;}
	.st21{fill:#C9C9C9;}
	.st22{fill:#179AB5;}
	.st23{fill:#108BA2;}
	.st24{fill:#353535;}
	.st25{fill:#0E889E;}
	.st26{fill:#313C3F;}
	.st27{fill:#2E2E2E;}
	.st28{fill:#313131;}
	.st29{fill:#0D859C;}
	.st30{fill:#0F89A0;}
	.st31{fill:#A8E3E8;}
	.st32{fill:#07788B;}
	.st33{fill:#2B474C;}
	.st34{fill:#1494AE;}
	.st35{fill:#9CE6EC;}
	.st36{fill:#2A5F6A;}
	.st37{fill:#0E879E;}
	.st38{fill:#1D6978;}
	.st39{fill:#92EDF4;}
	.st40{fill:#2B4C53;}
	.st41{fill:#D4D4D4;}
	.st42{fill:#4C4C4C;}
	.st43{fill:#2B4F56;}
	.st44{fill:#3C3C3C;}
	.st45{fill:#93ECF2;}
	.st46{fill:#C5CECE;}
	.st47{fill:#C8CCCC;}
	.st48{fill:#087A8E;}
</style>
<path class="st0" d="M380,156h65l23,1l4,2l4,1l1,3l2,2h26l5,4l3,3l6,1l33,1l23,2l3,1h9l14,2v2l19,1l20,5h3v2l3-1v3l1-2l5,1v2h-14
	l-1-1l-26-4l-18-1l-33-1l-49,1l-46,4l-24,4l-17,3l-6,2l-17,3l-13,5l-14,2l-16,5l-15,7l-10,3l-6,3l-4,4l-10,6l-11,8l-10,9l-10,11
	l-7,13l-5,8l-3,12v30l6,22l7,18l5,8l2,10l-1,4l-9-1l10,8v2l6,2l10,7l12,6l3,1l1-29v-33l4-1l1,2v52l46-10l29-7l24-5v-96l-9,6l-20,14
	l-4,3h-2v2l-14,10l-10,8l-7,4l-9,8l-9,5h-3l1-4l12-11l10-8l6-5h2v-2l8-6l5-4h2v-2l9-7h2l1-3l13-10l10-9l4-3l1-4l-11,7l-13,11l-14,12
	l-10,9l-8,7l-10,8l-3,1v2l-8,6h-2v2h-2l-1-4h2l2-4l5-5h2v-2l8-7l7-7l8-7l10-10h2v-2h2v-2l4-3h2l2-4l13-12l9-7h2l2-4l4-2h21l2,1v38
	l-1,20l20-7l14-6l26-10h6v4l-20,12v6l2-2l27-1l-1-6l-1-8l-7-16l-11-12l-8-6l-13-4l-15-2l2-2h14l10,2l14,7l8,7l9,13l3,5l4,16l13-1h34
	l79,5l14,1l-1-6l-11-3l-2-4l-81-8l-28-1v-1l5-1h19l40,2l42,4l-2-7l-6-7l-9-7l-4-1l6,8v6l-1,1h-31l-26-3l-23-2l-8-3l-6-7l1-2l9,6
	l13,3l43,3l11,1h10l-1-5l-7-9l-5-4l-14-3l-48-5l-41-4h-44l-12,3l-5,1l4-4l11-4l4-1h34l49,4l23,3l28,3l16,3l12,5l12,9l7,8l8,15l10,3
	l5,6l2,6v7h-6v4l5,1l-2,2l1,8l7,27l2,4l1-31l4-4v-4l-9-1v-1l10,1l3,3l1,11l1,34l4,4l33,15l12,7l3,4l1,5l1,57l21-2v-2l-7-4l-4,5l-4-1
	l-3-5l1-7l5-6l5-2l-4-1l-3-1l-2-9l2-1l10,4l6,4l4,6l2,9l2,1l1,25l-4,16l-3,16l-5,5l-6,4l4,2l11,2l13,4l8,3l19,7l1,2l-3,1l-19,1h-20
	l-20-7l-8-4v-2l-5,2l-8,4l-8,2l-109,10l-34,3l-11,4l-9,1l10,4l6,2l-1,3l-6,1l-25,1h-25l-9-3l-12-5l-18-8l-23-11l-20-9l-14-7l-12-5
	l-25-12l-9-4l-42-19l-7-4l-13-5l-7-4v-2l8,1l15,6l21,7l10,4l27,9l8,3l3,1v-2l-4-2l-3-5l-2-12l-5-13l-3-9h-29l-5,3l-3,7l-5,3h-12
	l-8-4l-2-3l-1-9l-2-5l1-5l2-6l-5-1l-2-2v-6l-4,2l-19,3h-29l-15-3l-17-7l-10-7l-11-10l-8-11l-6-9l-7,1h-9l4,10l6,11l20,26l-1,4l-6,1
	l-23-4l-18-7l-11-6l-13-11v-2l-4-2l-6-7l-7-11l-4-8l-4-16l-1-7v-12l2-14l-3,3l-1,7v23l4,15l3,13l4,8l2,2l1,11l-3,3l-8-3l-4-3h-9
	l-8-10l-5-11l-3-14l-4-8l-2-21v-10l2-18l5-19l7-12l8-15l5-5l7-9l3-3h2l2-5l6-7l9-6l5-5l6-3l4-4h2l2-4l10-3l9-6l28-14l11-5l11-3l3-2
	l21-6l16-4l18-6l15-2l10-2l16-2l22-4l8-1L380,156z"/>
<path class="st1" d="M469,252h14l10,2l14,7l8,7l9,13l3,5l4,16l13-1h34l79,5l13,2h3l1-3h2l1,2v6l-7,1l-9-2l-38-2l-41-3h-42l-8,1l1,10
	l7,31l3,9l5,5l7,1l91,2l8,1l-3,2h-62l-5,1l-1,2l-7-1l-12-2h-10l-1,2h-2l-2,8l-1,23l1,12l43,2l25,5l18,6l22,12v-8l-1-3l-30-11l-17-6
	l-1-2h7l24,7l12,3h4v-6l-32-11l-21-8v-1h7l30,8l1,3l11,2l6,1v-6l-5-4l-36-12l-16-6l4-1l36,9l23,6h16l46-1l-2-6l5,1l15,8l5,6v12l-3-2
	l-46,1l-30,2l1,2l3,1l68,3v1l-33,1l-31,2v3l8,1l36,2v1l-11,1l-23,1l-14,1v3l45,1l3,2l-44,3l-2,2l5,2l47,2v1l-48,3l-2,1v2l18,2h51
	l2-1l3,6v2l-60,4l-29,1l1-8l-4-8l-7-2l-5-5l-18-4l-1-4l-3-1l-11-1v-6l-4-2l-10-2l-18-4l-13-2h-18l-9,3l-8,6l-6,7l-1,3l21,3l6,4l7,10
	l3,6l10,2l10,1l1,3l3,1l-21,1l-3,3l-7-14l-6-4l-7-1l-6,3l-2,4v6l4-1l2-1h6l2,3l-4,2l1,5l3,4l3,8l1,18l-2,12l-3,6l-1,5l8-2l4-9l2-12
	l-1-17l3-2l1-9l5,5l7,5l2,12l2,1l4,9l6,5l12,3l22,2h21l76-7l39-4h5l-2,4l-10,7l-9,4l-7,4l-19,3l-74,7l-59,5l-11,4l-17,1l-10-1l-8-4
	l-4-5l-7-15l-3-7l-13-5l-52-16l-9-3l-4-3h-8l-4,7l-3,2h-8l-8-6l-9-1l-5-5l-4-16l-4-10l-3-10l-2-1h-29l-7,2l-3,9l-4,2h-10l-8-4l-1-5
	l-1-6l-2-7l3-1v-6l2-4l9-1l86-1l1-1l-1-29l-9,1l-51,9l-38,7l-5,2l-1-2v-6l2-1l11-1l80-18l10-2l1-1v-42l-1-58l-6,3l-16,12l-14,10
	l-12,9l-14,10l-2-1l5-5l12-10l22-18l13-11l11-9v-7l-5,2l-11,8l-11,9l-10,9l-11,9l-6,5l-2-1l19-19l8-7l16-15l13-11l5-2h18l1,1v56l1,2
	l10-3l30-12l16-6l4,1l-15,9l-1,1l-1,10l-3,1l-1-2v-8l-17,6l-22,9l-1,2v107l2,2h4l2-10h1l1,13l28,2h11l2-9l2,2l1,7l1,1l9,1h9l8-10
	l6-7l1-3v-45l-1-2l-25-1l-5-4l-1-5v-14l2,3l3,11l4,2h20v-8l-6-36l-1-5v-6l-6-19l-6-12l-9-10l-9-7l-13-4l-15-2L469,252z"/>
<path class="st2" d="M473,243h34l49,4l23,3l28,3l16,3l12,5l12,9l7,8l8,15l10,3l5,6l2,6v7h-6v4l5,1l-2,2l1,8l7,27l2,4l1-31l4-4v-4
	l-9-1v-1l10,1l3,3l1,11l1,34l4,4l33,15l12,7l3,4l1,5l1,57l21-2v-2l-7-4l-4,5l-4-1l-3-5l1-7l5-6l5-2l-4-1l-3-1l-2-9l2-1l10,4l6,4l4,6
	l2,9l1,25l-4,18l-3,15l-4,1l-58,5l-36,3l-10,1l-23,1h-31l-11-2l-9-5l-7-8l-3-9v-5l1-1l62-2h17l2,7l3,15l4,2h23l25-2l16-2l6-4l7-10
	l6-12l2-1l19-2l1-1v-8l-1-1l-25,1l-64,4l-36,2h-82l1,6l1,3l6,2l3,4l1,13l-2-1l-2-12l-8-6l-2-3l-1,8l-3,2l1,17l-2,12l-5,10l-2,1h-6
	v-5l4-9l1-17l-1-10l-4-10l-3-4l1-4l3-2l-1-1h-6l-3,2l-4-1v-6l4-6l5-2l7,1l6,4l4,6l3,7l3-2l18-1l-1-2l-17-2l-4-2l-6-11l-5-6l-9-3
	l-14-2l-2-1l1-4l7-8l9-6l7-2h18l24,4l14,4h5l3,3l-1,6h11l4,2v4l10,1l9,3l5,5l6,1l4,6l1,8l-2,3l5-1l40-2l32-2h12l-4-7l-1,1h-51l-18-2
	v-4l2-1l32-2l-31-2l-5-2v-3l2-1l41-3l-43-1l-2-1v-3l14-2l23-1l-1-1l-24-1l-8-2v-3l2-1l29-2l8-1l-43-2l-4-2v-2l2-1l28-2l46-1l2,2v-11
	l-4-5l-17-9l-1,1v4l-2,1l-44,1h-16l-23-6l-36-9l1,1l28,10l19,6l6,5l-1,6l-4,1l-13-4l-1-2l-30-8h-4l24,9l26,9l1,1v6l-5,1l-26-7l-10-3
	h-6l37,13l10,4l2,4v8l-2,1l-19-11l-14-5l-19-5l-12-2l-43-2l-1-1l-1-19l1-16l3-8h2l1-3h10l12,2l7,2l1-3l5-1h62l-5-1l-91-2l-9-2l-5-6
	l-6-26l-4-19l1-4l8-2h42l56,4l23,1l12,2h4l-1-8h-2l-1,4l-3,1l1-7l-3-3l-9-2l-2-4l-81-8l-28-1v-1l5-1h19l40,2l42,4l-2-7l-6-7l-9-7
	l-4-1l6,8v6l-1,1h-31l-26-3l-23-2l-8-3l-6-7l1-2l9,6l13,3l43,3l11,1h10l-1-5l-7-9l-5-4l-14-3l-48-5l-41-4h-44l-12,3l-5,1l4-4l11-4
	L473,243z"/>
<path class="st3" d="M458,171h11l2,2l-1,4l-31,4l-22,3l-8,2l-5,1l-9,2h-6l-5,1l-14,5l-5,1l-36,12l-10,5l-6,2l-13,7l-12,6l-12,9
	l-11,9l-9,10l-9,16l-5,15l-2,16v15l3,18l6,16l9,17l9,12l8,9l11,9l13,9l18,10l4,1l1-2l1,5l-2,1v-2l-14,3l-11,2h-29l-14-3l-11-4l-11-6
	l-11-9l-9-10l-8-13v-2l-13,1l-7,1l1,8l7,13l14,19l6,7l-1,4l-21-3l-18-6l-15-8l-11-9l-10-10l-11-18l-4-12l-2-11v-19l4-18l7-16l7-11
	l7-9l9-10l11-11l13-10l15-10l19-11l26-13l28-11l45-15l10-2l5-2l10-1l9-2l5-1l14-2l10-2h10v-2l23-1v-2h15v-1h19l2-1L458,171z"/>
<path class="st4" d="M380,156h65l23,1l4,2l4,1l1,3l2,2h26l5,4l3,3l6,1l33,1l23,2l3,1h9l14,2v2l19,1l20,5h3v2l3-1v3l1-2l5,1v2h-14
	l-1-1l-26-4l-18-1l-33-1l-49,1l-46,4l-24,4l-17,3l-6,2l-17,3l-13,5l-14,2l-16,5l-15,7l-10,3l-6,3l-4,4l-10,6l-11,8l-10,9l-10,11
	l-7,13l-5,8l-3,12v30l6,22l7,18l5,8l2,10l-1,4l-11-2l-7-8l-5-5l-8-13v-3h-2l-4-9l-6-16l-2-12v-17l2-20l6-16h2l1-5l6-9l5-6h2l2-4l3-2
	l2-4l13-10l11-6l3-1l3-3l5-2l6-3h3l1-2l5-2l7-3h3l1-2l10-3l19-6h3l1-2l6-1l10-3l2-1l4,1l1-2l15-1l1-2l9-1l39-6l17-2l-1-4h-11l-17,1
	l-2,1h-17v1h-9l-8-1v2l-19,2l-4-1v2l-15,2l-16,3h-7l-5,2l-10,1l-5,1h-4l-1,2l-17,4l-11,4l-33,11l-26,11l-28,14l-19,12l-17,12l-13,12
	l-7,7l-4,2l-7,9l-9,15l-6,13l-4,11l-3,3l-1,7v23l4,15l3,13l4,8l2,2l1,11l-3,3l-8-3l-4-3h-9l-8-10l-5-11l-3-14l-4-8l-2-21v-10l2-18
	l5-19l7-12l8-15l5-5l7-9l3-3h2l2-5l6-7l9-6l5-5l6-3l4-4h2l2-4l10-3l9-6l28-14l11-5l11-3l3-2l21-6l16-4l18-6l15-2l10-2l16-2l22-4l8-1
	L380,156z"/>
<path class="st2" d="M748,404h2l1,57l21-2v-2l-7-4l-4,5l-4-1l-3-5l1-7l5-6l5-2l-4-1l-3-1l-2-9l2-1l10,4l6,4l4,6l2,9l1,25l-4,18
	l-3,15l-4,1l-58,5l-36,3l-10,1l-23,1h-31l-11-2l-9-5l-7-8l-3-9v-5l1-1l62-2h17l2,7l3,15l4,2h23l25-2l16-2l6-4l7-10l6-12l2-1l19-2
	l1-1v-8l-1-1l-25,1l-64,4l-36,2h-82l1,6l1,3l6,2l3,4l1,13l-2-1l-2-12l-8-6l-2-3l-1,8l-3,2l1,17l-2,12l-5,10l-2,1h-6v-5l4-9l1-17
	l-1-10l-4-10l-3-4l1-4l3-2l-1-1h-6l-3,2l-4-1v-6l4-6l5-2l7,1l6,4l4,6l3,7l3-2l18-1l-1-2l-17-2l-4-2l-6-11l-5-6l-9-3l-14-2l-2-1l1-4
	l7-8l9-6l7-2h18l24,4l14,4h5l3,3l-1,6h11l4,2v4l10,1l9,3l5,5l6,1l4,6l1,8l-2,3l5-1l40-2l32-2h12l-4-7l-1,1h-51l-18-2v-4l2-1l32-2
	l-31-2l-5-2v-3l2-1l41-3l-43-1l-2-1v-3l14-2l23-1l-1-1l-24-1l-8-2v-3l2-1l29-2l8-1l-43-2l-4-2v-2l2-1l28-2l46-1l2,2L748,404z"/>
<path class="st4" d="M499,167h8l5,3l1,2l6,1l33,1l23,2l3,1h9l14,2v2l19,1l20,5h3v2l3-1v3l1-2l5,1v2h-14l-1-1l-26-4l-18-1l-33-1
	l-49,1l-46,4l-24,4l-17,3l-6,2l-17,3l-13,5l-14,2l-16,5l-15,7l-10,3l-6,3l-4,4l-10,6l-11,8l-10,9l-10,11l-7,13l-5,8l-3,12v30l6,22
	l7,18l5,8l2,10l-1,4l-11-2l-7-8l-5-5l-8-13v-3h-2l-4-9l-6-16l-2-12v-17l2-20l6-16h2l1-5l6-9l5-6h2l2-4l3-2l2-4l13-10l11-6l3-1l3-3
	l5-2l6-3h3l1-2l5-2l7-3h3l1-2l10-3l19-6h3l1-2l6-1l10-3l2-1l4,1l1-2l15-1l1-2l9-1l39-6l17-2l-1-4h-11l-17,1l-2,1h-17v1h-9l-8-1v2
	l-19,2l-4-1v2l-15,2l-16,3h-7l-5,2l-10,1l-5,1h-4l-1,2l-17,4l-11,4l-33,11l-26,11l-28,14l-19,12l-17,12l-13,12l-7,7l-4,2l-7,9l-9,15
	l-6,13l-4,11l-3,3l-1,7v23l4,15l3,13l4,8l2,2l1,11l-3,3l-4-2l3-2l-1-5l-8-16l-5-20l-1-7v-20l3-16l6-16l6-12l10-14l9-10l14-14l14-11
	l16-11l14-8l19-10l25-11l28-10l40-11l44-9l38-5l23-2l59-1h24L499,167z"/>
<path class="st5" d="M472,241h35l17,1l20,2l16,1l10,2l38,4l15,3l9,3l12,7l7,8l5,5l7,14l11,4l4,5l4,12l-1,4l1,1l10,1l4,3l1,4l2,43
	l4,4l32,14l11,6l4,5l1,2l1,22l16,5l8,6l4,7l1,10l-2-1l-3-11l-4-5l-8-4l-7-2l2,9h6v3l-6,3l-4,6l1,8l2,2l4-1l4-4l7,5l-1,3l-7,1h-14
	l-1-2l-1-55l-2-7l-9-6l-21-10l-18-8l-3-4l-1-34l-1-11l-2-2h-1l1,4l-4,4l-1,32l-3-2l-7-26l-2-7v-5v-2l-2-1v-4h6l-2-10l-3-6l-4-3l-9-3
	l-8-15l-8-9l-10-7l-12-5l-16-3l-43-5l-42-4l-15-1h-34l-13,4l-4,3l9-3l6-1h44l70,7l24,3l9,2l8,7l6,9l-1,4h-10l-36-3l-18-1l-13-3l-9-6
	l5,7l8,3l23,2l26,3h31v-6l-5-6v-2l5,1l11,9l5,7v5l-20-1l-38-3l-24-1h-19l23,1l30,3l45,4l7,2l1,4l9,1l4,4l-1,5l-14-1l-79-5h-47l-5-16
	l-6-9l-8-11l-8-6l-11-5l-10-2h-14l18,3l10,4l12,11l7,9l6,14l1,8l1,7l-28,1l-3,2v-7l13-8l8-5v-2l-9,1l-33,13l-20,8h-4v-20l1-39l4-5
	l11-5L472,241z"/>
<path class="st3" d="M427,257h18l1,1v57l1,3l-1,2l-1,46v64l4,3l7,2l-1,6l-2,6v23l3,11l1,5l1,3l5,3l-3,1l-7-3l-5-3h-8l-6,8l-1,1h-8
	l-8-6l-9-1l-4-5v-4l3-1l-1-9l-1-8l3-10l5,1l-1-6l-2-2h-5l-4,8l-1,12l-2-2l-4-14l-5-2h-29l-7,3l-3,8l-3,2h-10l-7-3v-23l10-4l85-1l2-1
	v-32l-1-1l-11,1l-21,4l-67,12h-4v-2l25-5l21-5l39-9l18-4l1-2v-19l-1-65l-1-17l-5,1l-5,3l-12,9l-2-1l7-6h2v-2l5-4h2v-2l5-2v-2l3-3v-7
	l-1-2l-5,1l-7,5l-3-1l14-11L427,257z"/>
<path class="st5" d="M780,449h2l1,25l-4,16l-3,16l-5,5l-6,4l4,2l11,2l13,4l8,3l19,7l1,2l-3,1l-19,1h-20l-20-7l-8-4v-2l-5,2l-8,4
	l-8,2h-11l1-2l18-3l10-6l9-4l8-6l1-2l-25,3l-50,5l-45,4h-21l-22-2l-12-3l-8-7l-4-13l-2-10l-7-4l-3-6l1-4h82l118-7h7l2,2v8l-2,2
	l-19,2l-3,3l-6,12l-6,8l-6,4l-24,3l-17,1h-23l-5-3l-3-15l-1-6h-17l-62,2l1,8l4,9l7,6l10,4l7,1h31l23-1l31-3l51-4l22-2h3l5-25l2-8
	V449z"/>
<path class="st6" d="M484,307h1l2,10l-5,3v49l2,2l8,1l3,4l2,5l7,2l4,1h20l2-8h-5l-1,3h-10l-13-2l-3-4l4-5h2v2l4,1l24,1l2,2v44l-3,5
	l-8,9l-4,5l-16-1l-1-1l-3-26l-2-5l-1,2l-1,29h-11l-21-2l-5-2l-1-79h-2l-1,48l-1,26l-2,4l-3-2V323l3-3l18-7l10-4L484,307z"/>
<path class="st5" d="M361,448h29l4,4l5,16l3,9l2,9l4,4l9,1l8,6h8l5-5l2-4h8l6,4l39,12l29,9l6,4l6,15l5,9l4,3l5,2l15,1l12-1l11-4
	l59-5l63-6h11v2l-98,9l-34,3l-11,4l-9,1l10,4l6,2l-1,3l-6,1l-25,1h-25l-9-3l-12-5l-18-8l-23-11l-20-9l-14-7l-12-5l-25-12l-9-4
	l-42-19l-7-4l-13-5l-7-4v-2l8,1l15,6l21,7l10,4l27,9l8,3l3,1v-2l-4-2l-3-5l-2-12l-5-13l-3-9h-29l-5,3l-1,2h-2l1-5L361,448z"/>
<path class="st3" d="M476,438h24l2,1l18,1l5-2l1,3l18,3l8,4l7,9l4,8l22,3l3,2l-21,1l-3,3l-7-14l-6-4l-7-1l-6,3l-2,4v6l4-1l2-1h6l2,3
	l-4,2l1,5l3,4l3,8l1,18l-2,12l-3,6l-1,5l8-2l4-9l2-12l-1-17l3-2l1-9l5,5l7,5l3,16l5,9l6,4l11,3l9,1h47l72-7l18-2h12l-5,5l-11,5l-5,4
	l-9,2l-51,5l-43,4l-50,4l-11,4h-14l2-4l4-7l3-10l1-7v-15h-3l-1,13l-5,16l-5,7l-6,3l-2,3l-5-1l-5-4l-8-16l-4-9l-21-7l-26-8l4-1l19,5
	l15,2h6v-29l5-16l4-10l-1-4h-14l-4-2l-34-4L476,438z"/>
<path class="st3" d="M600,378l9,1l31,8l23,6h16l46-1l-2-6l5,1l15,8l5,6v12l-3-2l-46,1l-30,2l1,2l3,1l68,3v1l-33,1l-31,2v3l8,1l36,2
	v1l-11,1l-23,1l-14,1v3l45,1l3,2l-44,3l-2,2l5,2l47,2v1l-48,3l-2,1v2l18,2h51l2-1l3,6v2l-60,4l-29,1l1-8l-4-8l-7-2l-5-5l-18-4l-1-4
	l-3-1l-11-1v-6l-5-3l-16-5l-23-4l-1-2l23,1l18,3l24,8l10,5l11,7h4l-1-14l-9-4l-6-2l4-1l10,1v-10l-11-3l-10-4l4-1l13,4h4v-6l-5-4
	l-36-12l-16-6V378z"/>
<path class="st6" d="M547,310h5l1,5l34,4l45,5l17,2l6,2l1,1v11l-1,18l1,5h-16l-88-2l-5-2l-3-6l-5-24l-3-12v-6L547,310z"/>
<path class="st7" d="M508,289h6v4l-20,12v6l2-2l27-1l-1-6h2l2,6v8l3,16l4,23v8l-1,1h-20l-5-3l-3-11v11l2,6l3,2l25,1l2,3v45l-3,6
	l-7,7l-6,8h-9l-9-1l-2-2l-1-7l-3,8h-11l-25-2l-3-1l-2-6l-2,4l-5-1l-2-2V322l4-4l33-13h4l1,10l2-1l1-10l5-4l11-6l-9,2l-5,1l4-4
	L508,289z M484,307l-10,4l-21,8l-4,2l-1,2v105l3,2l2-4l1-26l1-48h2l1,79l5,2l21,2h11l1-29l1-2l2,5l3,26l1,1l16,1l9-11l5-5l1-3v-44
	l-2-2l-24-1l-4-1v-2h-2l-4,6l3,3l13,2h10l1-3h5l-2,8h-20l-10-2l-2-2l-3-7l-1-1l-8-1l-2-2v-49l5-4l-2-9H484z"/>
<path class="st8" d="M505,177h44l40,3l8,2v1h-12l-14-1h-54l-23,1l-44,5l-28,5l-27,6l-13,3l-23,7l-27,11l-17,10l-17,12l-12,11l-9,11
	l-8,14l-4,9l-3,17v18l2,13l6,21l11,23l2,3v4l-4-2l-7-8l-9-13l-8-16l-5-15l-2-11v-23l2-12l7-17l8-12l8-10l10-10l18-13l32-16l16-6
	l20-6l28-7l34-6l40-4L505,177z"/>
<path class="st6" d="M553,370h11l12,2l26,9l31,11l18,6l4,2l1,4l-4,1l-35-9l-8-2h-4l24,9l26,9l1,1v6l-5,1l-26-7l-10-3h-6l37,13l10,4
	l2,4v8l-2,1l-19-11l-14-5l-19-5l-12-2l-43-2l-1-1l-1-19l1-16l3-8L553,370z"/>
<path class="st9" d="M423,167h65l13,1l2,2h-38l-47,1l-30,3l-31,4l-48,10l-42,12l-22,8l-29,13l-15,8l-19,11l-12,9l-10,8l-10,9l-13,13
	l-10,14l-6,10l-6,15l-3,9l-2,13v20l3,15l3,12l8,16l1,5l-3,1l-3-3l-9-19l-6-19l-2-13v-25l3-14l8-20l7-12l8-11l14-15l8-8l10-8l12-9
	l14-8l15-8l29-13l20-7l24-8l41-10l30-5l13-2l29-3L423,167z"/>
<path class="st0" d="M456,440h15l44,5l3,4l2-2h10l2,3l-6,15l-3,12v26l-1,1h-8l-19-4l-28-8l-8-4l1-3h12l22,6l19,8l4,1l-4-4l-17-7
	l-17-5l-12-3l-4-4l-3,5l-3-1l-3-10l-1-6v-15L456,440z"/>
<path class="st3" d="M756,478h21l1,7l-4,21l-4,1l-58,5l-36,3l-10,1l-23,1h-31l-11-2l-9-5l-7-8l-3-9v-5l1-1l62-2h17l2,7l3,15l4,2h23
	l25-2l16-2l6-4l7-10l6-12L756,478z"/>
<path class="st9" d="M388,159h62l22,2v2h-8l-7-1h-44l-35,2l-20,2l-26,4l-23,4l-23,6l-21,6l-18,5l-18,7l-23,10l-11,6l-14,8l-14,9
	l-17,12l-12,11l-16,16l-4,6l-7,10l-8,16l-5,15l-3,14v26l5,21l6,16l3,6l-1,4l-3-1l-8-16l-8-26l-2-12v-24l4-20l4-10l10-19l12-16l14-15
	l13-12l11-8l10-6l16-9l23-11l16-7l20-7l21-6l26-7l38-7l32-4L388,159z"/>
<path class="st5" d="M551,420h18l24,4l17,5l3,3l-2,4l-3,2h-9l-12-2l7,6l9-1l6-2h14l1,2l-8,4l-3,5l-1,6l3,6l2,1h6l4-4v-8l-3-3l1-3h11
	l8,3l-4,5l1,7l5,1l2-3v-7l4,2l1,2l6,1l3,6l-1,5l-31,2h-24l-39-4l-4-2l-6-11l-5-6l-9-3l-14-2l-2-1l1-4l7-8l9-6L551,420z"/>
<path class="st10" d="M499,167h8l5,3l1,2l6,1l33,1l23,2l3,1h9l14,2v2l19,1l20,5h3v2l3-1v3l1-2l5,1v2h-14l-1-1l-26-4l-19-2v-1l7-1
	l-4-1l-19-2l-27-2h-44l-34,2l-29,3h-11l2-2l20-3l17-2l-1-4h-11l-17,1l-2,1h-17v1h-9l-8-1v2l-19,2l-4-1v2l-15,2l-16,3h-7l-5,2l-10,1
	l-5,1h-4l-1,2l-17,4l-11,4l-33,11l-26,11l-28,14l-19,12l-17,12l-13,12l-7,7l-4,2l-7,9l-9,15l-6,13l-4,11l-3,3l-1,7v23l4,15l3,13l4,8
	l2,2l1,11l-3,3l-4-2l3-2l-1-5l-8-16l-5-20l-1-7v-20l3-16l6-16l6-12l10-14l9-10l14-14l14-11l16-11l14-8l19-10l25-11l28-10l40-11l44-9
	l38-5l23-2l59-1h24L499,167z"/>
<path class="st6" d="M458,253l3,1l1,1l22,2l11,4v2l5,2l6,5l8,11l4,8l6,20l-28,1l-3,2v-7l13-8l8-5v-2l-9,1l-33,13l-20,8h-4v-20l1-38
	l4,1L458,253z"/>
<path class="st11" d="M540,308h45l53,4l23,1l7,1l2,2l8,34l4,12l-1,3h-41l-88-2l-7-3l-4-11l-8-36l1-4L540,308z M547,310l-11,1l1,11
	l4,18l4,15l2,4l5,2l88,2h16l-1-8l1-15v-11l-2-2l-11-2l-40-4l-22-3l-28-3l-1-5H547z"/>
<path class="st12" d="M458,171h11l2,2l-1,4l-31,4l-22,3l-8,2l-5,1l-9,2h-6l-5,1l-14,5l-5,1l-36,12l-10,5l-6,2l-13,7l-12,6l-12,9
	l-11,9l-9,10l-9,16l-5,15l-2,16v15l3,18l6,16l9,17l9,12l8,9l11,9l13,9l18,10l4,1l1-2l1,5l-2,1v-2l-14,3l-11,2h-29l-14-3l-11-4l-11-6
	l-11-9l-9-10l-8-13v-2l-13,1l-7,1l1,8l7,13l14,19l6,7l-1,4l-21-3l-18-6l-15-8l-11-9l-10-10l-11-18l-4-12l-2-11v-19l4-18l7-16l7-11
	l7-9l9-10l11-11l13-10l15-10l19-11l26-13l28-11l45-15l10-2l5-2l10-1l9-2l5-1l14-2l10-2h10v-2l23-1v-2h15v-1h19l2-1L458,171z
	 M416,176l-39,4l-23,4l-16,3l-18,4l-16,4l-20,6l-27,9l-30,13l-19,10l-20,12l-11,8l-16,12v2l-4,2l-7,7l-9,11l-7,10l-8,16l-4,11l-2,9
	v24l4,17l7,13l10,13l3,1v2h2l1,3l16,11l13,6l16,5l16,1l-2-4l-13-17l-6-10l-6-12v-6l10-2l13-1l2,6l6,9l9,11l13,10l15,7l16,4l6,1h21
	l23-4l-1-3l-20-11l-9-7l-14-12l-9-10l-6-9l-5-9l-8-18l-4-17l-1-21l2-14l3-12l7-16l8-11l11-11l13-10l13-8l5-3l11-4l3-3l13-6l13-4v-2
	l10-3l19-5l7-1v-2l13-2l17-4l21-2v-2l11-1l7-1v-1H416z"/>
<path class="st6" d="M487,248l29,1l22,2l3,1l28,2l34,4l15,3l9,9l3,6h-19l-42-3l-12-2l-7-4l-8-7h-3l2,5l6,8l6,4l9,2v1l-11,2l-24,2
	l-7-11l-7-9l-10-7l-5-3l-18-4v-1L487,248z"/>
<path class="st6" d="M769,467h5l1,1v6l-8,2l-13,1l-4,6l-1,3l-3-1h-10l-30,2l-31,3l-5,3l-2,7l-2-4l-2-12l-2-1l-27,1l-21,1h-34l-8-5
	l-2-3v-3h15l27,1h15l31-1l34-2l10-1l40-2L769,467z"/>
<path class="st12" d="M428,255h18l1,1v47l-1,9h-1v-54h-18l-13,10l-2,3l8-6l5,1l1,2v7l-2,3h-2v2l-5,2v2l-5,4h-2v2l-8,6l11-7l4-4l4-2
	l5,1l1,17l1,65v19l-2,3l-57,13l-25,6l-16,3h-5v2l59-11l30-5l9-2h5l2,2v32l-3,2l-85,1l-9,3v18l-1,5l7,2h10l3-2l3-8l7-3h29l5,2l3,8
	l2,7l1-10l5-9h5l4,5l-1,4l-5-1l-2,10l1,8l1,9l-4,1l3,7l1,1l9,1l8,6h8l4-5l3-4h8l8,5l5,2l-4,1l-8-4l-1-1h-8l-4,7l-3,2h-8l-8-6l-9-1
	l-5-5l-4-16l-4-10l-3-10l-2-1h-29l-7,2l-3,9l-4,2h-10l-8-4l-1-5l-1-6l-2-7l3-1v-6l2-4l9-1l86-1l1-1l-1-29l-9,1l-51,9l-38,7l-5,2
	l-1-2v-6l2-1l11-1l80-18l10-2l1-1v-42l-1-58l-6,3l-16,12l-14,10l-12,9l-14,10l-2-1l5-5l12-10l22-18l13-11l11-9v-7l-5,2l-11,8l-11,9
	l-10,9l-11,9l-6,5l-2-1l19-19l8-7l16-15l13-11L428,255z"/>
<path class="st2" d="M610,428l4,2l1,5l-1,2h11l4,2v4l10,1l9,3l5,5l6,1l4,6l1,8l-2,3h5l-2,2l-15,1h-82l1,6l1,3l6,2l3,4l1,13l-2-1
	l-2-12l-8-6l-2-3l-1,8l-3,2l1,17l-2,12l-5,10l-2,1h-6v-5l4-9l1-17l-1-10l-4-10l-3-4l1-4l3-2l-1-1h-6l-3,2l-4-1v-6l4-6l5-2l7,1l6,4
	l4,6l3,7l3-2l18-1v-2l21,1h24l31-2l-1-7l-1-3h-6l-5-5l1,7l-3,4l-5-1l-2-3v-5l4-5l-7-2h-11l2,4l1,1v8l-5,5h-6l-5-5l-1-5l3-7l5-5l4-2
	h-14l-10,3h-5l-8-7l4-1l9,2h9l4-3v-4h-2V428z"/>
<path class="st3" d="M503,262l5,2l7,7l7,11l4,8l4,12l1,1h43l36,2l50,3l11,1l2-1l1-3h2l1,2v6l-7,1l-9-2l-38-2l-41-3h-42l-8,1l1,10
	l7,31l3,9l5,5l7,1l91,2l8,1l-3,2h-62l-5,1l-1,2l-7-1l-12-2h-11l-4,3l-2,7v36l4,3l-12,5l-7,6l-1-2h2l2-4l2-8v-37l-1-9l-27-1l-3-2l1-3
	l5,2h21l1-1l-1-13l-5-32l-1-11l-8-24l-5-9l-8-9l-3-3V262z"/>
<path class="st6" d="M422,398l2,1v27h-98l-1-1v-8l5-2l25-5l20-3l25-5L422,398z"/>
<path class="st6" d="M591,370h35l63,1l19,9l14,8l-1,3l-35,1h-24l-57-15l-15-4l-1-2L591,370z"/>
<path class="st2" d="M473,243h34l49,4l23,3l28,3l16,3l12,5l12,9l7,8l8,15l10,3l5,6l2,6v7h-6l1-2h3l-1-8h-2l-1,4l-3,1l1-7l-3-3l-9-2
	l-2-4l-81-8l-28-1v-1l5-1h19l40,2l42,4l-2-7l-6-7l-9-7l-4-1l6,8v6l-1,1h-31l-26-3l-23-2l-8-3l-6-7l1-2l9,6l13,3l43,3l11,1h10l-1-5
	l-7-9l-5-4l-14-3l-48-5l-41-4h-44l-12,3l-5,1l4-4l11-4L473,243z"/>
<path class="st6" d="M442,489l7,2l4,3l31,9l24,8l14,4l4,3l8,20l-2,1l-33-11l-9-4l-19-6l-30-11l-14-5v-1l9-3L442,489z"/>
<path class="st6" d="M543,425h4v3l19,4l16,5l9,5l2,2h7l9-2h5l-1,4h-2l-1,11l3,6l4,4l-19-1l-20-2l-13-2l-4-8l-6-8l-6-4l-8-2l-11-2
	l4-6L543,425z"/>
<path class="st13" d="M427,182h4v2l-34,6l-28,7l-20,6l-25,10l-23,12l-15,11l-10,9l-8,9l-10,15l-7,17l-2,12v23l3,14l6,16l7,14l13,17
	l3,3l4-1l1,6l-11-2l-7-8l-5-5l-8-13v-3h-2l-4-9l-6-16l-2-12v-17l2-20l6-16h2l1-5l6-9l5-6h2l2-4l3-2l2-4l13-10l11-6l3-1l3-3l5-2l6-3
	h3l1-2l5-2l7-3h3l1-2l10-3l19-6h3l1-2l6-1l10-3l2-1l4,1l1-2l15-1l1-2l9-1L427,182z"/>
<path class="st6" d="M522,449l7,1l-2,6l-4,11l-2,10l-1,19l-4-1l-9-4l-19-7l-20-5l-4-5l-2-8v-8h7l25,5l17,1l2-1l2-6l4-4L522,449z"/>
<path class="st12" d="M756,478h21l1,7l-4,21l-4,1l-58,5l-36,3l-10,1l-23,1h-31l-11-2l-9-5l-7-8l-3-9v-5l1-1l62-2h17l2,7l3,15l4,2h23
	l25-2l16-2l6-4l7-10l6-12L756,478z M643,487l-59,1l1,9l5,8l5,5l9,4l6,1h39l21-1l6-1v-1l-9-2l-3-6l-2-15l-1-2H643z"/>
<path class="st5" d="M532,244h12l16,1l10,2l38,4l15,3l9,3l12,7l7,8l5,5l7,14l11,4l4,5l4,12l-1,4l1,1l10,1l4,3l1,4l2,43l4,4l32,14
	l11,6l4,5l1,2l1,22l16,5l8,6l4,7l1,10l-2-1l-3-11l-4-5l-8-4l-7-2l2,9h6v3l-6,3l-4,6l1,8l2,2l4-1l4-4l7,5l-1,3l-7,1h-14l-1-2l-1-55
	l-2-7l-9-6l-21-10l-18-8l-3-4l-1-34l-1-11l-2-2h-1l1,4l-4,4l-1,32l-3-2l-7-26l-2-7v-5v-2l-2-1v-4h6l-2-10l-3-6l-4-3l-9-3l-8-15l-8-9
	l-10-7l-12-5l-16-3l-43-5l-32-3V244z"/>
<path class="st5" d="M553,370h11l12,2l26,9l31,11l18,6l4,2l1,4l-4,1l-35-9l-8-2h-4l24,9l26,9l1,1v6l-5,1l-26-7l-10-3h-6l37,13l10,4
	l2,4v8l-2,1l-19-11l-14-5l-19-5l-12-2l-43-2l-1-1l-1-19l1-16l3-8L553,370z M560,372l-7,1l-2,2l-1,6v31l1,1l42,2l19,3l24,8l18,10h1
	v-6l-5-3l-20-7l-11-4l-16-6l-7-2l-2-4h9l13,4l25,7l13,3v-4l-10-3l-9-3l-15-6l-18-6l-16-6l-3-1v-3l11,2l12,3l9,2l18,5l12,3h5l-2-2
	l-17-5l-8-3l-13-5l-13-4l-14-5l-8-3L560,372z"/>
<path class="st6" d="M536,288h43l23,2l32,3l16,1l6,2l4,4l8,2l2,4l-7-1l-51-3l-27-2h-52l-3-8v-3L536,288z"/>
<path class="st12" d="M484,500l12,3l26,8l6,3l4,9l8,16l6,4h3l4-4l5-3l5-10l3-11l2-13h3l1,2v13l-3,15l-3,6l-5,7l14-1l11-4l60-5l33-3
	l51-5l9-2l6-5l10-4l4-3h-11l-38,4l-52,5h-47l-13-2l-11-4l-5-6l-3-6v-3h2l4,9l6,5l12,3l22,2h21l76-7l39-4h5l-2,4l-10,7l-9,4l-7,4
	l-19,3l-74,7l-59,5l-11,4l-17,1l-10-1l-8-4l-4-5l-7-15l-3-7l-13-5l-29-9V500z"/>
<path class="st3" d="M737,486h7l1,4l-4,7l-5,4l-13,2l-37,3h-12l-3-2l-1-8l3-4l27-3L737,486z"/>
<path class="st14" d="M499,167h8l5,3l1,2l6,1l33,1l23,2l3,1h9l14,2v2l19,1l20,5h3v2l3-1v3l1-2l5,1v2h-14l-1-1l-26-4l-19-2v-1l7-1
	l-4-1l-19-2l-27-2h-44l-34,2l-29,3h-11l2-2l20-3l17-2l-1-4l-6-1l3-2h35L499,167z"/>
<path class="st5" d="M478,307h2l-1,3l-26,10l-4,1v107l2,1l1-3l1-26l1-46l1-2h2l1,2l1,77l15,2l21,2v-29l3-4l2,7l3,26l16,1l8-10l7-8
	l1,3l-7,8l-8,10h-9l-9-1l-2-2l-1-7l-3,8h-11l-25-2l-3-1l-2-6l-2,4l-5-1l-2-2V322l4-4L478,307z"/>
<path class="st12" d="M563,313h31l46,3l21,2l3,2l9,30l2,10l-1,1h-11l-6-2v-33l-13-2l-55-6l-24-3L563,313z"/>
<path class="st3" d="M497,312l1,2l-1,6h2l1,2l1,24l-1,23l-3,3l-12-2l-2-2v-47l3-2l7-2L497,312z"/>
<path class="st12" d="M551,369h2v2h-2l-2,8l-1,23l1,12l43,2l25,5l18,6l22,12v-8l-1-3l-30-11l-17-6l-1-2h7l24,7l12,3h4v-6l-32-11
	l-21-8v-1h7l30,8v3l10,4l8,3l1,2v8l-1,1l-11-1l11,4l2,2l1,14l-5,1l-16-10l-19-7l-15-4l-13-2l-22-1l23,4l16,5l1,2l-10-2l-18-4l-13-2
	h-18l-9,3l-5,2l4-5l8-3l-3-3v-36l3-8L551,369z"/>
<path class="st12" d="M427,425l1,3l-3,2l-85,1l-9,3v18l-1,5l7,2h10l3-2l3-8l7-3h29l5,2l3,8l2,7l1-10l5-9h5l4,5l-1,4l-5-1l-2,10l1,8
	l1,9l-4,1l3,7l1,1l9,1l8,6h8l4-5l3-4h8l8,5l5,2l-4,1l-8-4l-1-1h-8l-4,7l-3,2h-8l-8-6l-9-1l-5-5l-4-16l-4-10l-3-10l-2-1h-29l-7,2
	l-3,9l-4,2h-10l-8-4l-1-5l-1-6l-2-7l3-1v-6l2-4l9-1l86-1L427,425z"/>
<path class="st12" d="M544,454l5,1v2l5,2l5,6l4,11v7l-6-3l3,10v3h2l1,13l-2,12l-5,10l-2,1h-6v-5l4-9l1-17l-1-10l-4-10l-3-4l1-4l3-2
	l-1-1h-6l-3,2l-4-1v-6l4-6L544,454z"/>
<path class="st6" d="M174,334h18l2,10l4,21l-1,4l-5,2l-14,2l-3-7l-3-14l-1-15L174,334z"/>
<path class="st5" d="M591,370h35l63,1l19,9l14,8l-1,3l-35,1h-24l-57-15l-15-4l-1-2L591,370z M603,373l3,2l25,6l20,6l11,3h16l11-1
	l2-6l1-1v-7l-4-2H603z"/>
<path class="st5" d="M145,277l2,1l-8,10l-7,11l-7,14l-4,12l-2,11v19l4,18l7,14l8,11l10,10l13,9l15,7l13,4l21,3l-1-4l-11-14l-11-16
	l-5-11v-5l1-1l13-2l7,1l7,12l9,11l9,8l10,6l11,5l11,3l7,1l29,1v2h-29l-15-3l-17-7l-10-7l-11-10l-8-11l-6-9l-7,1h-9l4,10l6,11l20,26
	l-1,4l-6,1l-23-4l-18-7l-11-6l-13-11v-2l-4-2l-6-7l-7-11l-4-8l-4-16l-1-7v-12l3-18l4-12l9-17l7-10L145,277z"/>
<path class="st6" d="M520,319l5,1l6,36v5l-1,1l-14,1l-7-3l-2-6v-23l6-1l8-5l-2-5L520,319z"/>
<path class="st6" d="M184,288h15l-1,8l-3,11l-2,15l-2,3l-18,1l-1-1v-8l4-16l4-10L184,288z"/>
<path class="st3" d="M775,478h2l-2,16l-2,10l-2,1l-24,2h-8l6-8l10-18l1-1L775,478z"/>
<path class="st2" d="M497,442h11l9,2l2,1h13l2,2l-1,6l-6,16l-2,7v29l-1,1l-13-1l-16-3l-12-3l1,2l-7-1l-16-5l1-3l-6-4v-6l-4-12v-22
	l2-1v18l3,16l4-1l2-4l4,4l22,6l20,7l8,5v2l-7-1l-16-7l-22-6h-12v2l14,5l29,8l11,2h8v-26l4-15l5-13l-1-1h-10l-3,3l-2-5l-18-2V442z"/>
<path class="st15" d="M314,199h5l-4,3l-23,10l-13,6l-22,12l-20,14l-10,8h-12v-3l7-6l15-10l16-9l25-12l29-11L314,199z"/>
<path class="st12" d="M428,255h18l1,1v47l-1,9h-1v-54h-18l-13,10l-2,3l8-6l5,1l1,2v7l-2,3h-2v2l-5,2v2l-5,4h-2v2l-8,6l-2,5l-17,13
	l-21,15l-2-1l5-5l12-10l22-18l13-11l11-9v-7l-5,2l-11,8l-11,9l-10,9l-11,9l-6,5l-2-1l19-19l8-7l16-15l13-11L428,255z"/>
<path class="st11" d="M696,349h2l1,19l4,4l32,14l11,6l4,5l1,2l1,22l16,5l8,6l4,7l1,10l-2-1l-3-11l-4-5l-8-4l-7-2l2,9h6v3l-6,3l-4,6
	l1,8l2,2l4-1l4-4l7,5l-1,3l-7,1h-14l-1-2l-1-55l-2-7l-9-6l-21-10l-18-8l-3-4V349z"/>
<path class="st12" d="M484,500l12,3l26,8l6,3l4,9l8,16l6,4h3l4-4l5-3l5-10l3-11l2-13h3l1,2v13l-3,15l-3,6l-5,7l14-1l11-4l24-2h13v2
	l-37,3l-11,4l-17,1l-10-1l-8-4l-4-5l-7-15l-3-7l-13-5l-29-9V500z"/>
<path class="st12" d="M540,306h42l56,4l23,1l7,2v1l-30-1l-53-4h-51l1,9l8,35l3,7l6,2l88,2l5,1v1h-48l-42-1l-9-2l-5-6l-6-26l-4-19
	l1-4L540,306z"/>
<path class="st12" d="M320,195l4,1v4l-13,6l-13,5l-23,11l-19,11l-17,12l-11,9h-15l-1-5l8-7l18-12l25-13l15-7l32-12L320,195z
	 M314,199l-20,7l-20,8l-25,12l-17,10l-15,11l-3,4l1,1h12l10-8l17-12l23-13l8-4l34-15v-1H314z"/>
<path class="st16" d="M458,171h11l2,2l-1,4l-31,4l-22,3l-8,2l-5,1l-9,2h-6l-5,1l-14,5l-5,1l-36,12l-10,5l-8,2l1-3l15-7l10-3h3v-2
	l17-6l12-3h7v-2l22-5l8-2l21-2l19-3l17-2l-24-1l2-2L458,171z"/>
<path class="st12" d="M308,215l3,1l-11,6l-12,6l-12,9l-11,9l-9,10l-9,16l-5,15l-2,16v15l3,18l6,16l9,17l9,12l8,9l11,9l13,9l18,10
	l4,1l1-2l1,5l-2,1v-2l-7,1v-3l-20-11l-9-7l-14-12l-10-11l-6-9l-5-9l-8-18l-4-17l-1-21l2-14l3-12l7-16l8-11l12-12l13-10l13-8l5-3
	L308,215z"/>
<path class="st2" d="M610,428l4,2l1,5l-1,2h11l4,2v4h6l1,2l-11,1l2,4l1,1v8l-5,5h-6l-5-5l-1-5l3-7l5-5l4-2h-14l-10,3h-5l-8-7l4-1
	l9,2h9l4-3v-4h-2V428z"/>
<path class="st5" d="M421,285h3l1,4l1,54v42l-2,2l-14,3l-58,13l-4-1l9-3l42-10l24-5v-96l-9,6l-20,14l-4,3h-2v2l-7,5l-2-1l10-9l17-12
	l12-9L421,285z"/>
<path class="st3" d="M607,316l34,2l20,2l3,5l7,25l2,9h-10l-4-1v-33l-1-1l-51-6V316z"/>
<path class="st5" d="M487,247h28l70,7l24,3l9,2l8,7l6,9l-1,4h-10l-36-3l-18-1l-6-1v-2l26,1l24,2h18l-6-8l-5-5l-22-4l-27-3l-28-2
	l-3-1l-22-2l-21-1l-8-1V247z"/>
<path class="st6" d="M463,443h11l16,1l22,3l1,1v6l-1,2h-11l-19-2l-20-5L463,443z"/>
<path class="st6" d="M206,257h12l1,4l-12,16l-4,5h-16l1-5l9-11l4-5h2l1-3L206,257z"/>
<path class="st12" d="M405,444h5l4,5l-1,4l-5-1l-2,10l1,8l1,9l-4,1l3,7l1,1l9,1l8,6h8l4-5l3-4h8l8,5l5,2l-4,1l-8-4l-1-1h-8l-4,7
	l-3,2h-8l-8-6l-9-1l-5-5l-4-16l-4-10l-1-7h2l3,10l1-10L405,444z"/>
<path class="st12" d="M520,290h2l6,18l3,25l4,24v7l-2,2h-21l-5-2v2l2,1l25,1l3,3l1,14v30l-2,8l-3,4l-3-1l4-5l1-3v-45l-1-2l-25-1
	l-5-4l-1-5v-14l2,3l3,11l4,2h20v-8l-6-36l-1-5v-6l-5-16V290z"/>
<path class="st17" d="M420,173l44,1l-1,2l-29,4h-7v-1l11-2h-22l-39,4l-23,4l-16,3l-18,4l-17,3l-3-1l13-4l7-2l8-1l4-1l7-1l5-2h7l21-4
	h10v-2l23-1v-2h15V173z"/>
<path class="st18" d="M261,252l1,2l-6,9l-6,13l-3,9l-2,13v19l2,18l5,12l5,11l4,10l-2,1l-4-7v-3h-2l-4-9l-6-16l-2-12v-17l2-20l6-16h2
	l1-5l6-9L261,252z"/>
<path class="st0" d="M469,265h8l3,3l1,3v11l-3,12l-7,6l-6,2l-5-1l-2-3l1-5l9,1l5-5l2-6v-8l-2-4l-5-3L469,265z"/>
<path class="st5" d="M426,253h21l2,1v38l-1,20l20-7l14-6l8-3h3v2l-35,14l-10,3l-2-3v-56h-18l-10,5l4-6L426,253z"/>
<path class="st12" d="M737,486h7l1,4l-4,7l-5,4l-13,2l-37,3h-12l-3-2l-1-8l3-4l27-3L737,486z M733,488l-39,3l-21,3l-1,1v7l2,2h18
	l33-3l10-2l7-6l1-5H733z"/>
<path class="st11" d="M729,441h15l2,2l-1,4h-44l-16-1l-2-2l20-2L729,441z"/>
<path class="st19" d="M729,451h16l1,5l-1,1h-50l-8-2v-1l18-2L729,451z"/>
<path class="st12" d="M420,445l7,1l4,5l2,4l-1,7h-3l-2-6h-2l-2,6l-2,11l2,6v5l-3-2l-2-11l-1-18l-1-5L420,445z"/>
<path class="st20" d="M423,167h65l13,1l2,2h-38l-47,1l-11,1l-7-1l2-2l5-1L423,167z"/>
<path class="st15" d="M547,472l5,1l5,6l3,11l1,17l-2,11l-4,8l-5,1l3-9l2-12l-1-18l-4-10l-3-4V472z"/>
<path class="st2" d="M469,252h14l10,2l14,7l8,7l9,13l3,5l2,7l-1,4l-5-12l-7-11l-9-10l-3-1v2l4,2l9,11l4,9l-1,3l-7-13l-9-10l-9-7
	l-13-4l-15-2L469,252z"/>
<path class="st6" d="M553,422h12l16,2l14,3l14,4v4h-12l-19-5l-13-4l-13-2L553,422z"/>
<path class="st3" d="M693,328h1l1,43l-6-1l-18-1l2-2l9-1l1-2h4l1-2l1-32L693,328z"/>
<path class="st5" d="M460,485h12l12,3l1,3l5,1l15,6v1l-10,1l-28-8l-8-4L460,485z"/>
<path class="st21" d="M372,315v3l-9,8h-2l1,2l11-8l4-3h2l-2,4l-13,10l-7,4l-9,8l-9,5h-3l1-4l12-11l10-8l6-5h2v-2L372,315z"/>
<path class="st12" d="M568,502h3l1,2v13l-3,15l-7,8l-3,3l-6,1l-1-2l5-5l4-6l5-16L568,502z"/>
<path class="st5" d="M263,219h2l-1,3l-16,8l-10,6l-9,6l-8,6h-2v2l9-2l10-9l15-10l4-1l-1,3l-12,8l-9,7l-8,6h-12v-3l7-6l15-10l16-9
	L263,219z"/>
<path class="st22" d="M388,159h62l22,2v2h-8l-7-1h-44l-19,1h-22v-3L388,159z"/>
<path class="st11" d="M544,456l7,1l7,6l5,13v7l-4-2l-6-12l-5-4h-6l-5,1l1-6l3-3L544,456z"/>
<path class="st5" d="M595,180l25,2l20,5h3v2l3-1v3l1-2l5,1v2h-14l-1-1l-26-4l-19-2v-1l7-1l-4-1V180z"/>
<path class="st5" d="M732,412h12l1,5l-1,1h-28l-17-1l-7-2v-1l8-1L732,412z"/>
<path class="st5" d="M270,241v3l-5,5h-2l-2,4l-4,4l-6,12h-2l-1,6l-4,10l-2,20v17l3,15l5,13l3,7l-1,2l-7-14l-4-14l-2-13v-15l2-16
	l5-15l9-16l11-12L270,241z"/>
<path class="st5" d="M184,288h15l-1,8l-3,11l-2,15l-2,3l-18,1l-1-1v-8l4-16l4-10L184,288z M188,290l-5,1l-5,10l-3,11l-1,11h16l2-8
	l3-17l2-7L188,290z"/>
<path class="st12" d="M308,215l3,1l-11,6l-12,6l-12,9l-11,9l-9,10l-9,16l-5,15l-2,16l-1,15h-1l-1-14l2-14l3-12l7-16l8-11l12-12
	l13-10l13-8l5-3L308,215z"/>
<path class="st6" d="M628,447l9,1l2,2l-1,2v8l2,3h7l3-4l9,1l1,5l-17,1h-17l4-10l-1-5L628,447z"/>
<path class="st5" d="M174,334h18l2,10l4,21l-1,4l-5,2l-14,2l-3-7l-3-14l-1-15L174,334z M178,336l-5,2l1,14l4,17l1,1l12-1l5-2l-5-29
	l-1-2H178z"/>
<path class="st5" d="M709,423h36v5h-31l-21-1l-3-2l4-1L709,423z"/>
<path class="st12" d="M184,286h17l1,5l-4,11l-2,8l-2,15l-3,2l-19,1l-2-2l1-14l5-16l4-8L184,286z M184,288l-5,5l-5,15l-2,9v8l1,1
	l18-1l2-3l3-19l3-10v-5H184z"/>
<path class="st5" d="M421,267l3,1v7l-10,9l-14,11l-9,8l-10,8l-6,5l-2-1l7-7h2v-2l9-7h2l1-3l13-10l10-9l4-3l1-4l-11,7l-13,11l-8,7
	l-2-1l11-11l13-10L421,267z"/>
<path class="st8" d="M505,177h44l40,3l8,2v1h-12l-14-1l-54-1l2-2l-14-1V177z"/>
<path class="st12" d="M179,332h14l2,4l2,15l3,15l-1,5l-13,3h-10l-4-13l-2-10v-17l1-1L179,332z M174,334l-3,3l1,15l4,18l2,3l14-2l5-2
	l1-4l-4-21l-2-10H174z"/>
<path class="st12" d="M497,442h11l9,2l2,1h13l2,2l-1,6l-6,16l-2,7v29l-1,1l-13-1v-2h11v-26l4-15l5-13l-1-1h-10l-3,3l-2-5l-18-2V442z
	"/>
<path class="st12" d="M497,312l1,2l-1,6h2l1,2l1,24l-1,23l-3,3l-12-2l-2-2v-47l3-2l7-2L497,312z M493,320l-8,1l-1,2v37l1,8l12,1l2-2
	v-25l-1-20l-2-2H493z"/>
<path class="st12" d="M459,447l3,4l26,5l23,3v3l-1,1l-13-1l-27-5h-11l-1-1v-7L459,447z"/>
<path class="st23" d="M458,171h11l2,2l-1,4l-31,4l-22,3l-8,2l-5-1v-1l35-6l24-3l-24-1l2-2L458,171z"/>
<path class="st5" d="M725,432h20v5h-33l-21-1l1-2L725,432z"/>
<path class="st5" d="M206,257h12l1,4l-12,16l-4,5h-16l1-5l9-11l4-5h2l1-3L206,257z M207,259l-9,9l-7,9v2l9,1l4-2l7-11v-2l3-1l1-5
	H207z"/>
<path class="st5" d="M696,349h2l1,19l4,4l32,14l11,6l4,5l1,2v22h-1l-1-17l-2-7l-9-6l-21-10l-18-8l-3-4V349z"/>
<path class="st12" d="M205,255h14l3,2l-1,5l-7,8l-8,12l-3,2h-17l-2-4l7-10l9-10L205,255z M206,257l-3,2v2h-2l-9,11l-5,6v4h16l4-5
	l12-16l-1-4H206z"/>
<path class="st3" d="M770,434l4,2l4,9v19l-6-1l3-3v-4l-7-4v-10v-4h2V434z"/>
<path class="st2" d="M404,291v3l-3,5l-5,5l-13,10l-21,15l-2-1l5-5l12-10l22-18L404,291z"/>
<path class="st14" d="M427,182h4v2l-34,6l-28,7l-20,6l-3-1l9-4l10-2l1-2l6-1l10-3l2-1l4,1l1-2l15-1l1-2l9-1L427,182z"/>
<path class="st12" d="M687,432h23l-2,2l-16,1l20,1l6,1v1h-43l-2-1v-3L687,432z"/>
<path class="st6" d="M262,222h2v2l-6,3l-11,7l-11,8l-10,8h-7v-2l14-10l15-9L262,222z"/>
<path class="st12" d="M598,375l15,3l49,13l24,1v1l-7,1h-16l-23-6l-40-10l-2-1V375z"/>
<path class="st3" d="M618,445h2l1,3l5,4v7l-3,3h-6l-4-5l1-7L618,445z"/>
<path class="st24" d="M405,444h5l4,5l-1,4l-5-1v3l-3,3l-1,8l2,6v6l-3-3l-1-4v-21L405,444z"/>
<path class="st6" d="M677,324h11v2h-2l-1,26l-2-1l-5-21L677,324z"/>
<path class="st5" d="M483,256l7,1l8,4l10,9l7,8l7,16l1,8l-2-1l-4-12l-5-10l-8-10l-9-6v-2l-8-2l-4-2V256z"/>
<path class="st25" d="M363,194h2v2l-36,12l-10,5l-8,2l1-3l15-7l16-5l15-5L363,194z"/>
<path class="st8" d="M371,160l1,3h6v1l-20,2l-4,1h-11l-3-3l1-1l16-2L371,160z"/>
<path class="st12" d="M530,441l13,1l9,3l6,7l6,11l10,2l10,1l1,2h-9l-13-2l-4-6l-5-9l-5-4l-10-3l-9-1V441z"/>
<path class="st8" d="M387,169h15l4,3l-35,4l-7,1l1-2l7-2l-2-2L387,169z"/>
<path class="st26" d="M420,173l44,1l-1,2l-29,4h-7v-1l11-2l-16-1v-2L420,173z"/>
<path class="st6" d="M466,487l11,1l13,4l15,6v1h-7l-9-3l-21-6l-2-1V487z"/>
<path class="st5" d="M569,510h1v12l-3,10l-5,8l-3,3l-6,1l-1-2l8-6l4-8l3-10L569,510z"/>
<path class="st12" d="M682,320l10,1l3,3l1,11v34l-2-1l-1-39l-5,1l1-3l2-1v-4l-9-1V320z"/>
<path class="st12" d="M695,377l7,3l8,5l-1,3l-17-1l2-9L695,377z"/>
<path class="st12" d="M642,497h6l3,4l-1,5l-4,3l-5-2l-2-6L642,497z"/>
<path class="st27" d="M509,315h8v3l-9,4l-4,8l-3-3v-7l4-4L509,315z"/>
<path class="st28" d="M536,425v3l-8,9l-1,3l3,1l-4,1l-1-4l-5,3h-8v-2l8-1l10-11l2,1L536,425z"/>
<path class="st29" d="M458,171h11l2,2l-1,4h-14v-1l7-1l-24-1l2-2L458,171z"/>
<path class="st6" d="M245,335h2l5,12l5,11l4,10l-2,1l-4-7v-3h-2l-4-9l-5-14L245,335z"/>
<path class="st30" d="M97,383h5l4,11l3,6l-1,4l-3-1l-8-16V383z"/>
<path class="st31" d="M570,181l15,1h11l2-1l2,2l-7,2v1l-26-1v-2l-4-1L570,181z"/>
<path class="st32" d="M505,178h14l30,1v1l-32,1h-26l3-2L505,178z"/>
<path class="st5" d="M527,332h2l4,23v8l-1,1h-14l1-2l11-1l-1-10l-2-12V332z"/>
<path class="st33" d="M308,215l3,1l-11,6l-12,6l-12,9l-6,5l-2-1l7-7l18-12l7-4L308,215z"/>
<path class="st6" d="M641,274h2l5,5l4,5l-1,3l-18-2v-1l9-2L641,274z"/>
<path class="st12" d="M417,460h1l2,19l2,4l-1-7l-1-4l1-2h2l2,9l1,5l-2,2l-4-1l-3-6l-1-8v-10L417,460z"/>
<path class="st5" d="M421,453h2l-2,20l2,6v5l-3-2l-2-11v-11L421,453z"/>
<path class="st34" d="M423,167h4v2h9v1l-29,2l-7-1l2-2l5-1L423,167z"/>
<path class="st12" d="M756,490l6,1l2,5l-4,4l-5-2l-1-1v-5L756,490z"/>
<path class="st12" d="M498,427l2,2l1,7l1,1l9,1l1,2h-10l-5-1h-10v-2l9-1L498,427z"/>
<path class="st35" d="M578,177h9l14,2v2h-12l-22-2v-1L578,177z"/>
<path class="st5" d="M404,450h2l-2,16l2,6v6l-3-3l-1-4v-18L404,450z"/>
<path class="st36" d="M330,204l3,1l-1,2l-11,5l-10,3l1-3l15-7L330,204z"/>
<path class="st37" d="M116,394h2v2h2l5,9l-1,4l-4-1l-3-6L116,394z"/>
<path class="st38" d="M324,187l4,1l-1,2l-11,3l-16,2l2-2l17-4L324,187z"/>
<path class="st39" d="M427,182h4v2l-23,4l-4-1l5-2l8-2L427,182z"/>
<path class="st40" d="M344,183l7,1v2l-19,3h-4l1-3l10-1L344,183z"/>
<path class="st6" d="M752,428l3,1l2,10l-3,5h-2V428z"/>
<path class="st41" d="M643,499l5,1l1,5l-4,2l-3-1l-1-5L643,499z"/>
<path class="st3" d="M757,446l4,2l2,2l-1,5l-3,1l-3-4v-5L757,446z"/>
<path class="st30" d="M275,375l5,2l3,5v4l-4-2l-4-4V375z"/>
<path class="st6" d="M544,458l8,2l5,6v2l-4-2l-3-3l-9-1L544,458z"/>
<path class="st3" d="M621,258l6,1l5,3l-2,6l-5-5L621,258z"/>
<path class="st5" d="M421,447l6,1l3,5l-1,4l-3-5l-7-2v-2L421,447z"/>
<path class="st5" d="M348,409h7v2l-9,2h-8l1-2L348,409z"/>
<path class="st42" d="M624,499h5l1,5l-1,1h-5l-1-5L624,499z"/>
<path class="st3" d="M642,452l4,1l1,5l-4,2l-2-2L642,452z"/>
<path class="st43" d="M405,174l17,1v1l-6,1h-11V174z"/>
<path class="st44" d="M767,488l4,1l1,3l-3,3l-4-2l1-4L767,488z"/>
<path class="st45" d="M596,181l4,2l-7,2v1h-10l1-2l12-2V181z"/>
<path class="st46" d="M499,167h8l3,2v2l-2,1h-6l1-2L499,167z"/>
<path class="st5" d="M157,264l3,1l-10,10l-2-2L157,264z"/>
<path class="st39" d="M358,197l4,1l-7,3l-9,2l3-3L358,197z"/>
<path class="st32" d="M370,172l7,1v1l-15,2l-2-2L370,172z"/>
<path class="st3" d="M697,380l7,4v2l-8-1L697,380z"/>
<path class="st6" d="M414,493l4,2l2,4l-10-4L414,493z"/>
<path class="st5" d="M757,492l4,1v4h-4l-1-4L757,492z"/>
<path class="st5" d="M524,465l1,4l-2,8h-2l1-10L524,465z"/>
<path class="st5" d="M764,442l3,2l-1,5l-4-2v-4L764,442z"/>
<path class="st3" d="M760,429l6,1l3,3h-9V429z"/>
<path class="st47" d="M283,231v3l-8,6l-3,2v-3L283,231z"/>
<g>
	<g>
		<path class="st48" d="M147.8,624.9h-18.1v-17.1h67v17.1h-17.8v60.4h-31.1V624.9z"/>
		<path class="st48" d="M235.3,655v30.4h-30.6v-77.6h40.1c22.1,0,30.9,7.6,30.9,21.5c0,10-5.2,15.4-13.6,17.7
			c9.1,2.4,12.8,7.7,12.8,18.1v2c0,7.6,0.2,16.2,0.6,18.3H245c-0.6-2-1.3-10.6-1.3-19.7v-2.3c0-7.3-1.1-8.4-6.5-8.4H235.3z
			 M235.5,639.4h1.6c5.4,0,7.3-0.9,7.3-8.5c0-6.3-0.9-7.7-6.6-7.7h-2.2V639.4z"/>
		<path class="st48" d="M312.9,672l-1.6,13.4h-31.2l14.7-77.6h48.1l15.1,77.6h-32.2L324,672H312.9z M321.4,653.5
			c-0.5-6.6-1.6-23-2.2-29.1h-1.4c-0.6,7.8-2.2,22.3-2.7,29.1H321.4z"/>
		<path class="st48" d="M365.3,685.3v-77.6h33.1c8.5,29.5,11.4,39,12.1,41.9h0.9c-1.3-11-2.2-26.5-2.2-37.4v-4.5h27.4v77.6H403
			c-9.1-34.9-10.6-41.4-11.4-44.2h-1.1c0.9,9,2.2,29.3,2.2,39.8v4.4H365.3z"/>
		<path class="st48" d="M476.8,662.1c0,6.9,1.3,9.2,4.9,9.2c3.6,0,4.6-2.1,4.6-5.3c0-4.3-2.7-6.7-13.9-11.5
			c-18.3-7.9-25.1-14.3-25.1-25.3c0-14,10.7-23.1,34.4-23.1c24.9,0,34.1,9.9,34.1,24.7h-29.5c0-6.9-0.9-9.1-4.4-9.1
			c-2.7,0-3.8,1.4-3.8,4.4c0,3.1,0.9,5.2,11.2,9.6c20.7,8.7,27.9,14.7,27.9,27.3c0,14-9.8,24.1-35,24.1c-27.1,0-35.6-9-36-24.9
			H476.8z"/>
		<path class="st48" d="M549.3,607.8h60.4v17h-29.5V638h27.3v17.1h-27.3v30.2h-30.9V607.8z"/>
		<path class="st48" d="M645.8,672l-1.6,13.4H613l14.7-77.6h48.1l15.1,77.6h-32.2l-1.9-13.4H645.8z M654.3,653.5
			c-0.5-6.6-1.6-23-2.2-29.1h-1.4c-0.6,7.8-2.2,22.3-2.7,29.1H654.3z"/>
		<path class="st48" d="M761.1,666.1c0-10.4,0.2-27.9,0.5-38h-1.1c-2.2,18.3-5.5,47.2-6.9,57.2h-21.9c-1.6-14.8-4.6-40.6-6.8-57.3
			h-1.1c0.3,9.2,0.8,24.2,0.8,37.6v19.7h-26.3v-77.6h40.7c0.9,7.7,3.3,26.5,4.1,36h1.1c1.7-12.5,2.4-21.1,4.7-36H790v77.6h-28.9
			V666.1z"/>
	</g>
</g>
<g>
	<g>
		<path d="M297.6,701.9h2.2v24.8h9.6l-0.4,1.4h-11.4V701.9z"/>
		<path d="M325.8,707.8V722c0,4.2-2.4,6.4-7.3,6.4c-5.6,0-7.1-2.7-7.1-6.4v-14.2c0-3.9,2.2-6.3,7.3-6.3
			C324.2,701.6,325.8,704.6,325.8,707.8z M313.7,708v14c0,3.7,2,5.1,5,5.1c3.1,0,4.9-1.3,4.9-5.3V708c0-3.5-1.9-5-5-5
			C315.2,703,313.7,704.5,313.7,708z"/>
		<path d="M344.2,728.1h-1.8c-0.1-0.4-0.2-2-0.2-2.6c-0.9,2.2-3,2.9-5.5,2.9c-4.9,0-6.6-2.6-6.6-6.5V708c0-4.3,2.6-6.4,7.2-6.4
			c5.3,0,6.8,2.4,6.8,6.3v0.5H342v-0.4c0-2.3-0.3-4.9-4.7-4.9c-3.2,0-4.9,1.3-4.9,5.2v13.6c0,3.1,1.1,5.3,4.5,5.3c4.5,0,5-3,5-7
			v-4.5h-5.2v-1.4h7.4V728.1z"/>
		<path d="M358,696.2l-6.2,3.8h-2.4l5.5-3.8H358z M352,701.9v26.2h-2.2v-26.2H352z"/>
		<path d="M358.1,721.1v1.4c0,3,1.6,4.6,4.8,4.6c3.2,0,4.8-1.2,4.8-5.3c0-3.3-1.1-4.8-5-6.9c-4.1-2.2-6-3.4-6-7.2
			c0-3.2,1.4-6.1,6.4-6c4.3,0,6.2,1.8,6.2,5.6v1h-2.2v-1c0-2.5-0.8-4.2-4.1-4.2c-3.3,0-4.2,2-4.2,4.4c0,3,0.9,4,4.6,5.9
			c4.9,2.6,6.5,4,6.5,8.3c0,3.7-1.2,6.8-6.9,6.8c-5.2,0-7-2.4-7-5.9v-1.5H358.1z"/>
		<path d="M377.1,703.3h-6.2v-1.4h14.5v1.4h-6.1v24.8h-2.2V703.3z"/>
		<path d="M390.4,701.9v26.2h-2.2v-26.2H390.4z"/>
		<path d="M409.3,721v0.8c0,3.7-1,6.8-6.7,6.8c-6.1,0-6.9-3.4-6.9-7.1v-13.5c0-4.3,2.6-6.3,6.9-6.3c5.6,0,6.6,3,6.6,6.2v0.9h-2.3
			v-0.8c0-2.4-0.3-4.9-4.4-4.9c-3.7,0-4.5,2.2-4.5,5v13.4c0,3.6,1.2,5.7,4.7,5.7c3.8,0,4.4-2.4,4.4-5.4V721H409.3z"/>
		<path d="M415.9,718.4l-2.3,9.8h-2.2l6.4-26.2h3.2l6.7,26.2h-2.3l-2.4-9.8H415.9z M422.6,717c-1.8-7.1-2.9-11.8-3.2-13.8h-0.1
			c-0.1,1.9-1.7,8.1-3,13.8H422.6z"/>
		<path d="M443.5,728.1v-10.3c0-0.2-0.1-0.4-0.1-0.5l-6.9-15.4h2.4c2.3,5.2,5.1,11.7,5.8,13.6h0.1c0.7-1.9,3.6-8.7,5.7-13.6h2.3
			l-6.9,15.4c-0.1,0.2-0.1,0.3-0.1,0.6v10.3H443.5z"/>
		<path d="M466.6,703.3h-6.2v-1.4h14.5v1.4h-6.1v24.8h-2.2V703.3z"/>
		<path d="M479.8,715.4v12.8h-2.2v-26.2h5.2c5.7,0,7.9,1.8,7.9,5.7v1.4c0,3.1-1.2,5-3.9,5.6c2.6,0.5,3.6,1.9,3.6,5.4
			c0,2.3-0.1,6.4,0.4,8.1h-2.2c-0.5-1.7-0.4-6.2-0.4-8c0-3.6-0.8-4.8-5-4.8H479.8z M479.8,714h3.7c4.1,0,4.9-2.1,4.9-4.8v-1.4
			c0-2.8-1.3-4.4-5.6-4.4h-2.9V714z"/>
		<path d="M498,718.4l-2.3,9.8h-2.2l6.4-26.2h3.2l6.7,26.2h-2.3l-2.4-9.8H498z M504.6,717c-1.8-7.1-2.9-11.8-3.2-13.8h-0.1
			c-0.1,1.9-1.7,8.1-3,13.8H504.6z"/>
		<path d="M513.6,728.1v-26.2h2.8c2.6,6,8.7,20.6,9.5,23.5h0.1c-0.2-3.8-0.3-7.5-0.3-11.8v-11.7h2.2v26.2h-2.8
			c-2.9-6.7-8.7-21.2-9.8-24.3h-0.1c0.2,3.1,0.5,8,0.5,12.7v11.6H513.6z"/>
		<path d="M534.1,721.1v1.4c0,3,1.6,4.6,4.8,4.6c3.2,0,4.8-1.2,4.8-5.3c0-3.3-1.1-4.8-5-6.9c-4.1-2.2-6-3.4-6-7.2
			c0-3.2,1.4-6.1,6.4-6c4.3,0,6.2,1.8,6.2,5.6v1H543v-1c0-2.5-0.8-4.2-4.1-4.2c-3.3,0-4.2,2-4.2,4.4c0,3,0.9,4,4.6,5.9
			c4.9,2.6,6.5,4,6.5,8.3c0,3.7-1.2,6.8-6.9,6.8c-5.2,0-7-2.4-7-5.9v-1.5H534.1z"/>
		<path d="M550.3,701.9h5.4c5.3,0,7.6,1.9,7.6,5.7v1.6c0,3.5-1.2,6.5-7.8,6.5h-3v12.4h-2.2V701.9z M552.5,714.4h2.9
			c5,0,5.6-2.2,5.6-5.1v-1.5c0-2.3-0.8-4.5-5.4-4.5h-3.1V714.4z"/>
		<path d="M581.3,707.8V722c0,4.2-2.4,6.4-7.3,6.4c-5.6,0-7.1-2.7-7.1-6.4v-14.2c0-3.9,2.2-6.3,7.3-6.3
			C579.7,701.6,581.3,704.6,581.3,707.8z M569.1,708v14c0,3.7,2,5.1,5,5.1c3.1,0,4.9-1.3,4.9-5.3V708c0-3.5-1.9-5-5-5
			C570.7,703,569.1,704.5,569.1,708z"/>
		<path d="M588.7,715.4v12.8h-2.2v-26.2h5.2c5.7,0,7.9,1.8,7.9,5.7v1.4c0,3.1-1.2,5-3.9,5.6c2.6,0.5,3.6,1.9,3.6,5.4
			c0,2.3-0.1,6.4,0.4,8.1h-2.2c-0.5-1.7-0.4-6.2-0.4-8c0-3.6-0.8-4.8-5-4.8H588.7z M588.7,714h3.7c4.1,0,4.9-2.1,4.9-4.8v-1.4
			c0-2.8-1.3-4.4-5.6-4.4h-2.9V714z"/>
		<path d="M607.5,703.3h-6.2v-1.4h14.5v1.4h-6.1v24.8h-2.2V703.3z"/>
		<path d="M629.5,714.7h-8.7v12h9.8l-0.4,1.4h-11.6v-26.2H630v1.4h-9.2v10h8.7V714.7z"/>
	</g>
</g>
</svg>
